<svg xmlns="http://www.w3.org/2000/svg"
 xmlns:xlink="http://www.w3.org/1999/xlink"
 width="47px" height="31px"  viewBox="0 0 47 31">
<path fill-rule="evenodd"  fill="#f767b4"
 d="M44.15332,29.999817 C44.15332,29.999817 2.8466797,29.999817 2.8466797,29.999817 C2.3774414,29.999817 1.9977417,29.62268 1.9977417,29.157776 C1.9977417,29.157776 1.9977417,1.8422852 1.9977417,1.8422852 C1.9977417,1.3773193 2.3774414,1.0002441 2.8466797,1.0002441 C2.8466797,1.0002441 44.15332,1.0002441 44.15332,1.0002441 C44.62256,1.0002441 45.00226,1.3773193 45.00226,1.8422852 C45.00226,1.8422852 45.00226,29.157776 45.00226,29.157776 C45.00226,29.62268 44.62256,29.999817 44.15332,29.999817 ZM42.556885,28.315735 C42.556885,28.315735 30.060852,12.217468 30.060852,12.217468 C30.060852,12.217468 23.528198,16.557129 23.528198,16.557129 C23.528198,16.557129 16.891663,12.160217 16.891663,12.160217 C16.891663,12.160217 4.371277,28.315735 4.371277,28.315735 C4.371277,28.315735 42.556885,28.315735 42.556885,28.315735 ZM3.6956177,26.4234 C3.6956177,26.4234 15.476257,11.222412 15.476257,11.222412 C15.476257,11.222412 3.6956177,3.4174194 3.6956177,3.4174194 C3.6956177,3.4174194 3.6956177,26.4234 3.6956177,26.4234 ZM5.645569,2.6842651 C5.645569,2.6842651 23.501648,14.517639 23.501648,14.517639 C23.501648,14.517639 41.35492,2.6842651 41.35492,2.6842651 C41.35492,2.6842651 5.645569,2.6842651 5.645569,2.6842651 ZM31.474976,11.278015 C31.474976,11.278015 43.304382,26.517395 43.304382,26.517395 C43.304382,26.517395 43.304382,3.4197998 43.304382,3.4197998 C43.304382,3.4197998 31.474976,11.278015 31.474976,11.278015 Z"/>
</svg>