<svg width="225" height="12" viewBox="0 0 225 12" fill="none" xmlns="http://www.w3.org/2000/svg">
                    <path d="M191.344 9.08471V11.6493H190.037V4.48988H193.086C194.393 4.48988 195.591 5.55845 195.482 6.84072C195.482 8.33671 194.393 9.08471 192.868 9.08471H191.344ZM192.977 5.55845H191.344V8.123H192.977C193.849 8.123 194.393 7.58872 194.393 6.84072C194.393 5.98587 193.957 5.55845 192.977 5.55845Z" fill="#67C2E5"/>
                    <path d="M213.782 7.8006L210.079 4.38119V11.6474H211.059V6.94575L212.802 8.54859L213.673 9.40345L214.544 8.54859L216.287 6.94575V11.6474H217.594V4.38119L213.782 7.8006Z" fill="#67C2E5"/>
                    <path d="M207.131 4.48843H205.825V11.6478H207.131V4.48843Z" fill="#67C2E5"/>
                    <path d="M220.532 4.48843V11.6478H224.998V10.5792H221.73V8.33526H224.671V7.2667H221.73V5.557H224.998V4.48843H220.532Z" fill="#67C2E5"/>
                    <path d="M199.075 8.76269V11.6478H197.877V4.48843H200.491C202.015 4.48843 202.996 5.23643 202.996 6.62556C202.996 7.80098 202.451 8.54898 201.253 8.65583L203.867 11.6478H202.451L199.946 8.76269H199.075ZM199.075 7.69413H200.491C201.362 7.69413 201.798 7.2667 201.798 6.62556C201.798 5.98442 201.362 5.557 200.491 5.557H199.075V7.69413Z" fill="#67C2E5"/>
                    <path d="M26.4657 3.09884C26.4657 5.02225 27.6637 5.77025 29.1884 6.30453L30.822 6.94567C31.9111 7.37309 32.4556 7.69366 32.4556 8.54851C32.4556 9.61707 31.4754 10.0445 30.1685 10.0445C28.7528 10.0445 27.5548 9.51022 26.4657 8.76222V10.7925C27.228 11.3268 28.6438 11.7542 30.1685 11.7542C32.5645 11.7542 34.307 10.5788 34.307 8.54851C34.307 6.83881 33.4358 5.8771 31.6932 5.23596L29.8418 4.59483C28.8617 4.27426 28.3171 3.95369 28.3171 3.09884C28.3171 2.13713 29.1884 1.7097 30.3864 1.7097C31.8022 1.7097 32.7823 2.24398 33.7625 2.88512V0.961708C32.8912 0.320569 31.6932 0 30.3864 0C28.2082 0 26.4657 1.06856 26.4657 3.09884Z" fill="#185F7D"/>
                    <path d="M85.5963 3.09884C85.5963 5.02225 86.7943 5.77025 88.319 6.30453L89.9526 6.94567C91.0417 7.37309 91.5862 7.69366 91.5862 8.54851C91.5862 9.61707 90.606 10.0445 89.2992 10.0445C87.8834 10.0445 86.6854 9.51022 85.5963 8.76222V10.7925C86.3587 11.3268 87.7745 11.7542 89.2992 11.7542C91.6951 11.7542 93.4376 10.5788 93.4376 8.54851C93.4376 6.94567 92.5664 5.8771 90.8239 5.23596L88.9724 4.59483C87.9923 4.27426 87.4477 3.95369 87.4477 3.09884C87.4477 2.13713 88.319 1.7097 89.517 1.7097C90.9328 1.7097 91.9129 2.24398 92.8931 2.88512V0.961708C92.0218 0.320569 90.8239 0 89.517 0C87.4477 0 85.5963 1.06856 85.5963 3.09884Z" fill="#185F7D"/>
                    <path d="M73.7262 3.09884C73.7262 5.02225 74.9242 5.77025 76.4489 6.30453L78.0825 6.94567C79.1716 7.37309 79.7161 7.69366 79.7161 8.54851C79.7161 9.61707 78.736 10.0445 77.4291 10.0445C76.0133 10.0445 74.8153 9.51022 73.7262 8.76222V10.7925C74.4886 11.3268 75.9044 11.7542 77.4291 11.7542C79.934 11.7542 81.6765 10.6856 81.6765 8.54851C81.6765 6.94567 80.8052 5.8771 79.0627 5.23596L77.2113 4.59483C76.2311 4.27426 75.6866 3.95369 75.6866 3.09884C75.6866 2.13713 76.5578 1.7097 77.7558 1.7097C79.1716 1.7097 80.1518 2.24398 81.1319 2.88512V0.961708C80.1518 0.320569 78.9538 0 77.6469 0C75.5777 0 73.7262 1.06856 73.7262 3.09884Z" fill="#185F7D"/>
                    <path d="M62.1881 0.213882V11.6475H69.2671V9.93782H64.1484V6.3047H68.7225V4.70185H64.1484V1.92358H69.2671V0.213882H62.1881Z" fill="#185F7D"/>
                    <path d="M1.96033 6.62527H4.4652C5.77208 6.62527 6.53443 7.26641 6.53443 8.33497C6.53443 9.40353 5.77208 10.0447 4.4652 10.0447H1.96033V6.62527ZM1.96033 1.81673H4.13848C5.44536 1.81673 6.20771 2.24415 6.20771 3.31272C6.20771 4.38128 5.44536 4.91556 4.13848 4.91556H1.96033V1.81673ZM0 0.213882V11.6475H4.4652C6.86116 11.6475 8.38586 10.4721 8.38586 8.33497C8.38586 7.15955 7.62351 6.09099 6.53443 5.77042C7.40569 5.44985 8.05914 4.595 8.05914 3.31272C8.05914 1.28245 6.53443 0.213882 4.13848 0.213882H0Z" fill="#185F7D"/>
                    <path d="M39.5279 11.6475H41.4883V0.213882H39.5279V11.6475Z" fill="#185F7D"/>
                    <path d="M19.9303 0.213882V6.83898C19.9303 9.08296 18.9501 10.0447 17.2076 10.0447C15.4651 10.0447 14.4849 8.97611 14.4849 6.83898V0.213882H12.5246V7.05269C12.5246 10.1515 14.376 11.7544 17.2076 11.7544C20.0392 11.7544 21.8906 10.1515 21.8906 7.05269V0.213882H19.9303Z" fill="#185F7D"/>
                    <path d="M55.1093 0.213713V7.47995L47.0501 0V11.6473H49.0105V4.1674L56.9607 11.7542V0.213713H55.1093Z" fill="#185F7D"/>
                    <path d="M105.202 11.6475H103.242V0.213882H105.202V11.6475Z" fill="#185F7D"/>
                    <path d="M121.105 11.7542L113.046 4.1674V11.6473H111.194V0L119.253 7.47995V0.213713H121.105V11.7542Z" fill="#185F7D"/>
                    <path d="M126.226 8.76261C127.315 9.61746 128.513 10.0449 129.929 10.0449C131.236 10.0449 132.216 9.61746 132.216 8.54889C132.216 7.69404 131.671 7.26662 130.582 6.94605L128.84 6.41177C127.315 5.87748 126.117 5.02263 126.117 3.20607C126.117 1.1758 127.86 0.107239 130.038 0.107239C131.345 0.107239 132.543 0.427808 133.523 1.06895V3.09922C132.543 2.35122 131.454 1.9238 130.147 1.9238C128.949 1.9238 128.078 2.35122 128.078 3.31293C128.078 4.16778 128.622 4.48835 129.602 4.80892L131.454 5.45006C133.305 6.0912 134.067 7.15976 134.067 8.76261C134.067 10.8997 132.216 11.9683 129.929 11.9683C128.404 11.9683 127.097 11.5409 126.226 11.0066V8.76261Z" fill="#185F7D"/>
                    <path d="M140.49 11.6475H138.53V0.213882H140.49V11.6475Z" fill="#185F7D"/>
                    <path d="M146.585 0.213882H151.05C154.535 0.213882 156.713 2.45787 156.713 5.87727C156.713 9.40353 154.535 11.5407 151.05 11.5407H146.585V0.213882ZM150.941 9.93781C153.337 9.93781 154.644 8.44182 154.644 5.98413C154.644 3.52643 153.337 2.03044 150.941 2.03044H148.545V10.0447H150.941V9.93781Z" fill="#185F7D"/>
                    <path d="M168.259 0.213882V1.92358H163.141V4.70185H167.715V6.41155H163.141V9.93782H168.259V11.6475H161.18V0.213882H168.259Z" fill="#185F7D"/>
                    <path d="M174.903 6.94584V11.5407H172.943V0.213882H177.19C179.586 0.213882 181.111 1.3893 181.111 3.63329C181.111 5.5567 180.24 6.62527 178.388 6.94584L182.527 11.6475H180.24L176.21 7.05269H174.903V6.94584ZM174.903 5.34299H177.081C178.388 5.34299 179.151 4.70185 179.151 3.63329C179.151 2.56472 178.388 1.92358 177.081 1.92358H174.903V5.34299Z" fill="#185F7D"/>
                </svg>